<svg version="1.1" xmlns="http://www.w3.org/2000/svg" xmlns:xlink="http://www.w3.org/1999/xlink" xml:space="preserve" xmlns:serif="http://www.serif.com/" style="fill-rule:evenodd;clip-rule:evenodd;stroke-linecap:square;stroke-linejoin:round;stroke-miterlimit:1.5;" viewBox="7.77 116.45 710.67 807.47"><g><path d="M363.096,142.903l-328.888,189.549l2.65,378.059l326.532,186.968l328.593,-187.263l0,-375.703l-328.887,-191.61Z" style="fill:url(#_Radial1);stroke:#000;stroke-width:21.9px;"/><g><path d="M131.587,352.59l21.597,0l0,47.989c0,8.816 -2.31,15.996 -6.929,21.54c-2.657,3.195 -6.035,5.736 -10.135,7.623c-4.1,1.886 -8.306,2.829 -12.618,2.829c-8.585,0 -15.823,-2.887 -21.713,-8.662c-5.891,-5.775 -8.836,-12.858 -8.836,-21.251c0,-8.123 2.926,-15.149 8.778,-21.078c5.852,-5.929 12.781,-8.893 20.789,-8.893c1.271,-0 3.196,0.115 5.775,0.346l-0,23.792c-1.771,-1.386 -3.542,-2.079 -5.313,-2.079c-2.233,0 -4.148,0.818 -5.746,2.455c-1.598,1.636 -2.396,3.609 -2.396,5.919c-0,2.233 0.827,4.148 2.483,5.746c1.655,1.597 3.638,2.396 5.948,2.396c5.544,0 8.316,-3.83 8.316,-11.492l-0,-47.18Z" style="fill-rule:nonzero;"/><path d="M214.649,406.123l-32.743,-0c-0.5,-1.656 -0.751,-3.176 -0.751,-4.562c0,-1.925 0.347,-3.812 1.04,-5.66l10.972,0c-0.77,-4.273 -3.176,-6.41 -7.219,-6.41c-2.694,0 -4.889,1.146 -6.583,3.436c-1.694,2.291 -2.541,5.226 -2.541,8.807c0,3.734 0.818,6.756 2.455,9.066c1.636,2.31 3.782,3.465 6.438,3.465c2.156,0 4.235,-1.078 6.237,-3.234l12.301,14.784c-5.737,4.504 -12.108,6.756 -19.115,6.756c-8.547,0 -15.727,-2.868 -21.54,-8.604c-5.813,-5.736 -8.72,-12.839 -8.72,-21.309c-0,-8.431 2.935,-15.554 8.807,-21.367c5.871,-5.813 13.079,-8.72 21.626,-8.72c8.354,0 15.371,2.839 21.049,8.518c5.679,5.678 8.518,12.676 8.518,20.991c0,0.847 -0.077,2.195 -0.231,4.043Z" style="fill-rule:nonzero;"/><path d="M252.437,404.91l21.425,-0.808c-0.616,8.315 -3.715,15.149 -9.297,20.5c-5.583,5.351 -12.378,8.027 -20.386,8.027c-8.469,0 -15.62,-2.945 -21.453,-8.835c-5.833,-5.891 -8.749,-13.109 -8.749,-21.656c0,-8.123 2.945,-15.072 8.836,-20.847c5.89,-5.775 12.954,-8.662 21.193,-8.662c7.199,-0 13.552,2.271 19.057,6.814c5.505,4.543 8.932,10.337 10.279,17.382l-21.886,0.809c-1.887,-2.464 -4.274,-3.696 -7.161,-3.696c-2.464,-0 -4.485,0.808 -6.064,2.425c-1.578,1.617 -2.367,3.658 -2.367,6.122c-0,2.502 0.837,4.6 2.512,6.294c1.674,1.694 3.763,2.541 6.265,2.541c3.658,0 6.256,-2.137 7.796,-6.41Z" style="fill-rule:nonzero;"/><path d="M304.085,372.629c8.162,-0 15.159,2.935 20.992,8.806c5.832,5.871 8.748,12.907 8.748,21.107c0,8.316 -2.954,15.4 -8.864,21.252c-5.909,5.851 -13.041,8.777 -21.396,8.777c-8.354,0 -15.495,-2.935 -21.424,-8.806c-5.929,-5.871 -8.893,-12.945 -8.893,-21.223c-0,-8.431 2.964,-15.524 8.893,-21.28c5.929,-5.755 13.243,-8.633 21.944,-8.633Zm-0.577,21.309c-2.31,-0 -4.274,0.837 -5.891,2.512c-1.617,1.675 -2.425,3.725 -2.425,6.15c-0,2.387 0.818,4.427 2.454,6.121c1.636,1.694 3.59,2.541 5.862,2.541c2.31,0 4.283,-0.847 5.919,-2.541c1.636,-1.694 2.454,-3.734 2.454,-6.121c0,-2.425 -0.808,-4.475 -2.425,-6.15c-1.617,-1.675 -3.6,-2.512 -5.948,-2.512Z" style="fill-rule:nonzero;"/><path d="M336.329,374.65l21.598,-0l0,32.512c0,3.273 1.367,4.909 4.1,4.909c2.695,-0 4.043,-1.636 4.043,-4.909l-0,-32.512l21.598,-0l-0,32.108c-0,7.469 -2.484,13.773 -7.45,18.912c-4.966,5.14 -11.049,7.71 -18.248,7.71c-8.201,-0 -14.803,-2.984 -19.808,-8.951c-3.888,-4.658 -5.833,-11.126 -5.833,-19.403l0,-30.376Z" style="fill-rule:nonzero;"/><path d="M414.079,452.726l-21.598,-0l0,-48.047c0,-8.816 2.31,-15.996 6.93,-21.54c2.657,-3.195 6.035,-5.736 10.135,-7.623c4.1,-1.886 8.306,-2.829 12.618,-2.829c8.585,-0 15.823,2.887 21.713,8.662c5.891,5.775 8.836,12.858 8.836,21.251c-0,8.162 -2.926,15.207 -8.778,21.136c-5.852,5.929 -12.781,8.893 -20.789,8.893c-1.309,0 -3.234,-0.135 -5.775,-0.404l-0,-23.792c1.771,1.424 3.542,2.136 5.313,2.136c2.233,0 4.148,-0.827 5.746,-2.483c1.597,-1.655 2.396,-3.619 2.396,-5.89c0,-2.272 -0.827,-4.206 -2.483,-5.804c-1.655,-1.598 -3.638,-2.396 -5.948,-2.396c-5.544,-0 -8.316,3.83 -8.316,11.491l0,47.239Z" style="fill-rule:nonzero;"/><rect x="455.679" y="352.59" width="21.598" height="78.826" style="fill-rule:nonzero;"/><path d="M540.012,406.123l-32.743,-0c-0.501,-1.656 -0.751,-3.176 -0.751,-4.562c0,-1.925 0.346,-3.812 1.039,-5.66l10.973,0c-0.77,-4.273 -3.177,-6.41 -7.219,-6.41c-2.695,0 -4.889,1.146 -6.583,3.436c-1.694,2.291 -2.541,5.226 -2.541,8.807c-0,3.734 0.818,6.756 2.454,9.066c1.636,2.31 3.783,3.465 6.439,3.465c2.156,0 4.235,-1.078 6.237,-3.234l12.3,14.784c-5.736,4.504 -12.108,6.756 -19.114,6.756c-8.547,0 -15.727,-2.868 -21.54,-8.604c-5.814,-5.736 -8.72,-12.839 -8.72,-21.309c-0,-8.431 2.935,-15.554 8.806,-21.367c5.871,-5.813 13.08,-8.72 21.627,-8.72c8.354,0 15.371,2.839 21.049,8.518c5.679,5.678 8.518,12.676 8.518,20.991c-0,0.847 -0.077,2.195 -0.231,4.043Z" style="fill-rule:nonzero;"/><path d="M567.521,373.784l-0,57.632l-23.446,0l0,-78.826l30.087,0c9.163,0 16.266,2.272 21.309,6.814c5.621,5.082 8.431,11.531 8.431,19.346c0,7.969 -3.484,14.687 -10.452,20.154l13.513,32.512l-24.601,0l-11.376,-25.409l-0,-20.269l1.848,-0c4.928,-0 7.392,-2.118 7.392,-6.353c-0,-3.734 -2.849,-5.601 -8.547,-5.601l-4.158,-0Z" style="fill-rule:nonzero;"/></g><path d="M147.856,638.567l8.433,15.03l-7.603,14.678l11.878,10.926l15.484,-9.428l15.769,6.029l4.06,17.262l16.848,0.391l4.784,-15.218l15.562,-6.782l15.181,9.862l12.606,-8.751l-6.956,-16.179l8.357,-13.423l18.18,-1.985l3.219,-16.511l-15.517,-7.034l-2.747,-14.964l12.827,-13.415l-7.764,-13.068l-16.335,2.732l-13.685,-11.417l2.187,-16.154l-14.726,-6.589l-10.993,13.298l-16.877,0.217l-10.306,-14.102l-15.05,4.571l0.42,16.886l-13.282,10.142l-16.435,-4.842l-8.772,13.607l11.967,13.368l-3.606,16.087l-15.987,7.169l2.303,15.756l16.576,1.851Zm56.937,-48.36c16.333,-0 29.593,13.656 29.593,30.476c0,13.101 -8.043,24.281 -19.317,28.586c-3.202,1.223 -6.664,1.891 -10.276,1.891c-16.333,-0 -29.593,-13.656 -29.593,-30.477c-0,-16.82 13.26,-30.476 29.593,-30.476Z" style="fill:url(#_Radial2);stroke:#001202;stroke-width:11.63px;stroke-linecap:round;"/><path d="M255.86,754.563l3.844,16.064l18.455,-0.865l9.861,15.99l-8.538,15.377l13.67,12.877l15.336,-10.492l16.201,8.923l1.316,18.538l16.562,3.86l8.61,-15.637l19.136,-1.261l10.053,15.867l17.399,-5.067l-1.064,-18.422l15.868,-10.052l16.683,8.97l13.012,-12.652l-10.837,-14.935l9.24,-16.974l18.762,-0.193l4.412,-17.259l-16.351,-8.411l-1.141,-18.489l16.53,-9.956l-5.561,-16.197l-18.32,0.473l-9.86,-15.226l8.582,-17.019l-13.284,-10.975l-14.792,9.216l-17.261,-8.974l-0.515,-18.152l-17.486,-3.795l-8.526,15.54l-19.548,1.601l-9.384,-16.189l-17.165,5.031l0.014,18.026l-16.002,9.698l-15.655,-7.862l-13.088,11.45l10.187,15.967l-8.887,16.7l-17.601,-1.255l-5.041,18.215l16.481,9.048l0.233,18.974l-14.54,9.904Zm102.6,-70.136c26.393,-0 47.82,22.067 47.82,49.247c-0,27.179 -21.427,49.246 -47.82,49.246c-26.392,0 -47.819,-22.067 -47.819,-49.246c0,-27.18 21.427,-49.247 47.819,-49.247Z" style="fill:url(#_Radial3);stroke:#001202;stroke-width:11.67px;stroke-linecap:round;"/><path d="M410.968,593.358l7.787,16.195l-10.294,14.126l11.448,14.355l17.057,-9.75l15.668,9.694l0.334,17.263l17.772,4.615l8.114,-15.851l18.714,-2.763l11.696,14.081l15.894,-6.812l-3.259,-18.165l13.754,-12.99l17.863,6.443l9.733,-14.884l-13.46,-12.684l3.257,-18.751l17.8,-5.336l-1.666,-17.721l-17.916,-2.251l-8.17,-16.874l10.778,-14.936l-12.128,-12.226l-16.626,7.895l-15.354,-8.662l-1.183,-18.53l-17.472,-3.845l-7.591,15.825l-18.192,2.737l-12.218,-14.054l-16.704,6.328l3.533,18.414l-14.054,12.219l-17.236,-4.38l-9.772,14.101l12.924,12.448l-3.322,17.446l-17.239,6.093l1.954,18.23l17.776,2.957Zm71.569,-58.506c20.444,0 37.042,17.094 37.042,38.149c0,21.054 -16.598,38.148 -37.042,38.148c-20.445,0 -37.043,-17.094 -37.043,-38.148c0,-21.055 16.598,-38.149 37.043,-38.149Z" style="fill:url(#_Radial4);stroke:#001202;stroke-width:11.67px;stroke-linecap:round;"/></g><defs><radialGradient id="_Radial1" cx="0" cy="0" r="1" gradientUnits="userSpaceOnUse" gradientTransform="matrix(3.53334,-355.093,355.093,3.53334,361.109,540.064)"><stop offset="0" style="stop-color:#fff;stop-opacity:1"/><stop offset="1" style="stop-color:#a6a6a6;stop-opacity:1"/></radialGradient><radialGradient id="_Radial2" cx="0" cy="0" r="1" gradientUnits="userSpaceOnUse" gradientTransform="matrix(0.883301,-64.482,64.482,0.883301,202.554,615.735)"><stop offset="0" style="stop-color:#fff;stop-opacity:1"/><stop offset="1" style="stop-color:#8c8b8b;stop-opacity:1"/></radialGradient><radialGradient id="_Radial3" cx="0" cy="0" r="1" gradientUnits="userSpaceOnUse" gradientTransform="matrix(1.76651,-90.9814,90.9814,1.76651,355.515,734.982)"><stop offset="0" style="stop-color:#fff;stop-opacity:1"/><stop offset="1" style="stop-color:#7a7a7a;stop-opacity:1"/></radialGradient><radialGradient id="_Radial4" cx="0" cy="0" r="1" gradientUnits="userSpaceOnUse" gradientTransform="matrix(-0.441651,-74.6401,74.6401,-0.441651,483.449,578.636)"><stop offset="0" style="stop-color:#fff;stop-opacity:1"/><stop offset="1" style="stop-color:#808080;stop-opacity:1"/></radialGradient></defs></svg>